<?xml version="1.0" encoding="utf-8"?>
<!-- Generator: Adobe Illustrator 21.0.0, SVG Export Plug-In . SVG Version: 6.00 Build 0)  -->
<svg version="1.1" id="Layer_1" xmlns="http://www.w3.org/2000/svg" xmlns:xlink="http://www.w3.org/1999/xlink" x="0px" y="0px"
	 viewBox="0 0 74 54" style="enable-background:new 0 0 74 54;" xml:space="preserve">
<style type="text/css">
	.st0{fill:#EC6B81;}
</style>
<path class="st0" d="M72,10.7c-6.9-13.6-30.9-9.4-35,4C32.6,8.1,27.3,2.1,19.2,0.6c-7.9-1.4-15,2.5-17.8,10
	c-2.5,6.7-1.1,13.3,2.3,19.2c0,0,1.9,3.2,3.4,4.9c6.4,7.8,16.2,13.8,24.1,16.3c1,0.3,3.6,3.3,6,2.6c9.9-3.1,26.8-13,33.6-24.9
	c0.4,0,1.7-3.5,1.7-3.5C74.3,20.5,74.5,15.6,72,10.7z"/>
</svg>
